<mxfile host="app.diagrams.net" modified="2020-12-13T17:30:00.382Z" agent="5.0 (Windows NT 10.0; Win64; x64) AppleWebKit/537.36 (KHTML, like Gecko) Chrome/87.0.4280.88 Safari/537.36" etag="cAD92ZDvJJgKrMM1jWua" version="14.0.1" type="github">
  <diagram id="fguTXT12leVRgmFZJoVW" name="Page-1">
    <mxGraphModel dx="1422" dy="794" grid="1" gridSize="10" guides="1" tooltips="1" connect="1" arrows="1" fold="1" page="1" pageScale="1" pageWidth="827" pageHeight="1169" math="0" shadow="0">
      <root>
        <mxCell id="0" />
        <mxCell id="1" parent="0" />
        <mxCell id="d3jXsretxob8g1yO5UtV-2" value="&lt;div&gt;&lt;span&gt;Spring&lt;/span&gt;&lt;/div&gt;&lt;div&gt;&lt;span&gt;Hibernate&lt;/span&gt;&lt;/div&gt;&lt;div&gt;&lt;span&gt;Commons Logging&lt;/span&gt;&lt;/div&gt;&lt;div&gt;&lt;span&gt;JSON&lt;/span&gt;&lt;/div&gt;&lt;div&gt;&lt;span&gt;....&lt;/span&gt;&lt;/div&gt;" style="rounded=0;whiteSpace=wrap;html=1;align=center;" vertex="1" parent="1">
          <mxGeometry x="50" y="200" width="200" height="140" as="geometry" />
        </mxCell>
        <mxCell id="d3jXsretxob8g1yO5UtV-3" value="Developer" style="rounded=1;whiteSpace=wrap;html=1;labelBackgroundColor=none;fillColor=#d5e8d4;strokeColor=#82b366;" vertex="1" parent="1">
          <mxGeometry x="120" y="300" width="80" height="20" as="geometry" />
        </mxCell>
        <mxCell id="d3jXsretxob8g1yO5UtV-4" value="MAVEN" style="rounded=0;whiteSpace=wrap;html=1;labelBackgroundColor=none;fillColor=#CC0000;fontStyle=3" vertex="1" parent="1">
          <mxGeometry x="460" y="240" width="120" height="60" as="geometry" />
        </mxCell>
        <mxCell id="d3jXsretxob8g1yO5UtV-7" value="Proje Konfigürasyon Dosyası" style="text;html=1;strokeColor=none;fillColor=none;align=center;verticalAlign=middle;whiteSpace=wrap;rounded=0;labelBackgroundColor=none;fontSize=15;" vertex="1" parent="1">
          <mxGeometry x="40" y="170" width="200" height="20" as="geometry" />
        </mxCell>
        <mxCell id="d3jXsretxob8g1yO5UtV-8" value="" style="endArrow=classic;startArrow=classic;html=1;fontSize=15;exitX=1;exitY=0.5;exitDx=0;exitDy=0;entryX=0;entryY=0.5;entryDx=0;entryDy=0;" edge="1" parent="1" source="d3jXsretxob8g1yO5UtV-2" target="d3jXsretxob8g1yO5UtV-4">
          <mxGeometry width="50" height="50" relative="1" as="geometry">
            <mxPoint x="380" y="340" as="sourcePoint" />
            <mxPoint x="440" y="340" as="targetPoint" />
            <Array as="points" />
          </mxGeometry>
        </mxCell>
        <mxCell id="d3jXsretxob8g1yO5UtV-9" value="Kofigürasyon dosyasını okur" style="text;html=1;strokeColor=#d6b656;fillColor=#fff2cc;align=center;verticalAlign=middle;whiteSpace=wrap;rounded=0;labelBackgroundColor=none;fontSize=15;" vertex="1" parent="1">
          <mxGeometry x="270" y="210" width="180" height="30" as="geometry" />
        </mxCell>
        <mxCell id="d3jXsretxob8g1yO5UtV-11" value="Oluşturur ve çalıştırır" style="text;html=1;align=center;verticalAlign=middle;resizable=0;points=[];autosize=1;fontSize=15;fillColor=#fff2cc;strokeColor=#d6b656;" vertex="1" parent="1">
          <mxGeometry x="275" y="280" width="150" height="20" as="geometry" />
        </mxCell>
        <mxCell id="d3jXsretxob8g1yO5UtV-25" value="Çalışılan Bilgisayar" style="rounded=1;whiteSpace=wrap;html=1;labelBackgroundColor=none;fontSize=15;fillColor=#7EA6E0;" vertex="1" parent="1">
          <mxGeometry x="620" y="130" width="120" height="60" as="geometry" />
        </mxCell>
        <mxCell id="d3jXsretxob8g1yO5UtV-26" value="MAVEN lokal depo" style="text;html=1;strokeColor=none;fillColor=none;align=center;verticalAlign=middle;whiteSpace=wrap;rounded=0;labelBackgroundColor=none;fontSize=15;" vertex="1" parent="1">
          <mxGeometry x="620" y="110" width="130" height="20" as="geometry" />
        </mxCell>
        <mxCell id="d3jXsretxob8g1yO5UtV-27" value="" style="endArrow=classic;startArrow=classic;html=1;fontSize=15;exitX=0;exitY=0.5;exitDx=0;exitDy=0;entryX=1;entryY=0;entryDx=0;entryDy=0;" edge="1" parent="1" source="d3jXsretxob8g1yO5UtV-25" target="d3jXsretxob8g1yO5UtV-4">
          <mxGeometry width="50" height="50" relative="1" as="geometry">
            <mxPoint x="390" y="340" as="sourcePoint" />
            <mxPoint x="440" y="290" as="targetPoint" />
            <Array as="points" />
          </mxGeometry>
        </mxCell>
        <mxCell id="d3jXsretxob8g1yO5UtV-30" value="Lokal depo kontrol" style="text;html=1;strokeColor=#d6b656;fillColor=#fff2cc;align=center;verticalAlign=middle;whiteSpace=wrap;rounded=0;labelBackgroundColor=none;fontSize=15;" vertex="1" parent="1">
          <mxGeometry x="470" y="170" width="140" height="20" as="geometry" />
        </mxCell>
        <mxCell id="d3jXsretxob8g1yO5UtV-31" value="Lokal depoda kaydedilir" style="text;html=1;strokeColor=#d6b656;fillColor=#fff2cc;align=center;verticalAlign=middle;whiteSpace=wrap;rounded=0;labelBackgroundColor=none;fontSize=15;" vertex="1" parent="1">
          <mxGeometry x="600" y="210" width="160" height="20" as="geometry" />
        </mxCell>
        <mxCell id="d3jXsretxob8g1yO5UtV-32" value="MAVEN Merkezi Depo (Uzak Depo)" style="rounded=1;whiteSpace=wrap;html=1;labelBackgroundColor=none;fillColor=#7EA6E0;fontSize=15;" vertex="1" parent="1">
          <mxGeometry x="620" y="340" width="150" height="80" as="geometry" />
        </mxCell>
        <mxCell id="d3jXsretxob8g1yO5UtV-33" value="" style="endArrow=classic;startArrow=classic;html=1;fontSize=15;" edge="1" parent="1" source="d3jXsretxob8g1yO5UtV-4" target="d3jXsretxob8g1yO5UtV-32">
          <mxGeometry width="50" height="50" relative="1" as="geometry">
            <mxPoint x="390" y="290" as="sourcePoint" />
            <mxPoint x="440" y="240" as="targetPoint" />
          </mxGeometry>
        </mxCell>
        <mxCell id="d3jXsretxob8g1yO5UtV-34" value="Merkezi depodan alır" style="text;html=1;strokeColor=#d6b656;fillColor=#fff2cc;align=center;verticalAlign=middle;whiteSpace=wrap;rounded=0;labelBackgroundColor=none;fontSize=15;" vertex="1" parent="1">
          <mxGeometry x="480" y="310" width="160" height="20" as="geometry" />
        </mxCell>
      </root>
    </mxGraphModel>
  </diagram>
</mxfile>
